<svg id="Layer_1" data-name="Layer 1" xmlns="http://www.w3.org/2000/svg" xmlns:xlink="http://www.w3.org/1999/xlink" viewBox="0 0 477 104.97"><defs><style>.cls-1{fill:#232323;}.cls-2{fill:url(#linear-gradient);}</style><linearGradient id="linear-gradient" x1="2.12" y1="52.48" x2="101.16" y2="52.48" gradientUnits="userSpaceOnUse"><stop offset="0" stop-color="#672891"/><stop offset="0.3" stop-color="#7f2390"/><stop offset="0.5" stop-color="#92208f"/><stop offset="1" stop-color="#9e035d"/></linearGradient></defs><title>logo</title><path class="cls-1" d="M143,59.76V71.64h-6V33.34h13.4a12.86,12.86,0,0,1,5.18,1,13.49,13.49,0,0,1,4.22,2.81,12.79,12.79,0,0,1,2.82,4.19,13.22,13.22,0,0,1-7,17.33,12.85,12.85,0,0,1-5.18,1Zm7-5.21a8,8,0,0,0,3.13-.62,8,8,0,0,0,4.22-4.22,8.16,8.16,0,0,0,.62-3.18,7.9,7.9,0,0,0-4.84-7.35,7.85,7.85,0,0,0-3.13-.63h-7v16Z"/><path class="cls-1" d="M170.86,52.47a19,19,0,0,1,1.56-7.66A20,20,0,0,1,183,34.28a19.64,19.64,0,0,1,15.34,0,19.88,19.88,0,0,1,10.55,10.53,19.47,19.47,0,0,1,0,15.32,19.82,19.82,0,0,1-10.55,10.52,19.52,19.52,0,0,1-15.34,0,20,20,0,0,1-10.53-10.52A19,19,0,0,1,170.86,52.47Zm6.09,0A13.27,13.27,0,0,0,178,57.76a13.89,13.89,0,0,0,7.3,7.29,13.59,13.59,0,0,0,10.57,0,13.8,13.8,0,0,0,7.3-7.29,13.61,13.61,0,0,0,0-10.58,13.81,13.81,0,0,0-2.94-4.35,14.05,14.05,0,0,0-4.36-2.95,13.59,13.59,0,0,0-10.57,0A14,14,0,0,0,181,42.83,13.67,13.67,0,0,0,178,47.18,13.23,13.23,0,0,0,177,52.47Z"/><path class="cls-1" d="M220.41,71.64V33.34h10.84a18.52,18.52,0,0,1,7.43,1.51A19.52,19.52,0,0,1,248.87,45a19.08,19.08,0,0,1,0,14.88,19.37,19.37,0,0,1-10.19,10.21,18.35,18.35,0,0,1-7.43,1.51ZM226.46,39V66h4.48a13.53,13.53,0,0,0,5.34-1,12.92,12.92,0,0,0,4.27-2.86,14,14,0,0,0,2.84-15,13.07,13.07,0,0,0-2.86-4.28A13.62,13.62,0,0,0,230.94,39Z"/><path class="cls-1" d="M280.29,33.34h22.77v5.21H286.33V49.71h14.85v5.15H286.33V71.64h-6Z"/><path class="cls-1" d="M311.29,52.47a18.85,18.85,0,0,1,1.57-7.66,20,20,0,0,1,10.52-10.53A19,19,0,0,1,331,32.72a19.26,19.26,0,0,1,7.69,1.56,20,20,0,0,1,10.55,10.53,19.59,19.59,0,0,1,0,15.32,19.91,19.91,0,0,1-10.55,10.52A19.1,19.1,0,0,1,331,72.22a18.89,18.89,0,0,1-7.66-1.57,19.9,19.9,0,0,1-10.52-10.52A18.89,18.89,0,0,1,311.29,52.47Zm6.1,0a13.27,13.27,0,0,0,1.07,5.29,13.82,13.82,0,0,0,7.29,7.29,13.61,13.61,0,0,0,10.58,0,13.81,13.81,0,0,0,4.35-2.94,14,14,0,0,0,2.95-4.35,13.61,13.61,0,0,0,0-10.58,14,14,0,0,0-7.3-7.3,13.61,13.61,0,0,0-10.58,0,14,14,0,0,0-4.35,2.95,13.81,13.81,0,0,0-2.94,4.35A13.23,13.23,0,0,0,317.39,52.47Z"/><path class="cls-1" d="M359.13,52.47a19,19,0,0,1,1.56-7.66,20,20,0,0,1,10.53-10.53,19,19,0,0,1,7.66-1.56,19.26,19.26,0,0,1,7.69,1.56,20,20,0,0,1,10.55,10.53,19.59,19.59,0,0,1,0,15.32,19.91,19.91,0,0,1-10.55,10.52,19.1,19.1,0,0,1-7.69,1.57,18.89,18.89,0,0,1-7.66-1.57,20,20,0,0,1-10.53-10.52A19,19,0,0,1,359.13,52.47Zm6.1,0a13.1,13.1,0,0,0,1.07,5.29,13.82,13.82,0,0,0,7.29,7.29,13.61,13.61,0,0,0,10.58,0,13.82,13.82,0,0,0,7.29-7.29,13.61,13.61,0,0,0,0-10.58,13.81,13.81,0,0,0-2.94-4.35,14,14,0,0,0-4.35-2.95,13.61,13.61,0,0,0-10.58,0,14,14,0,0,0-4.35,2.95,13.81,13.81,0,0,0-2.94,4.35A13.06,13.06,0,0,0,365.23,52.47Z"/><path class="cls-1" d="M408.69,71.64V33.34h10.84A18.47,18.47,0,0,1,427,34.85,19.52,19.52,0,0,1,437.14,45a19.08,19.08,0,0,1,0,14.88A19.37,19.37,0,0,1,427,70.13a18.3,18.3,0,0,1-7.42,1.51Zm6-32.67V66h4.48a13.61,13.61,0,0,0,5.35-1,13.13,13.13,0,0,0,4.27-2.86,14,14,0,0,0,2.84-15,13.1,13.1,0,0,0-2.87-4.28A13.62,13.62,0,0,0,419.21,39Z"/><path class="cls-1" d="M460.85,72.48a19.69,19.69,0,0,1-8.34-1.83,15.74,15.74,0,0,1-3.15-1.92,11.39,11.39,0,0,1-2.27-2.35l4.43-3.65a12,12,0,0,0,4,2.84,12.62,12.62,0,0,0,5.39,1.12,8.29,8.29,0,0,0,5-1.27,3.85,3.85,0,0,0,1.72-3.21,4.42,4.42,0,0,0-1.09-3,9.71,9.71,0,0,0-3.6-2.29l-7.14-3.13a16.53,16.53,0,0,1-6.72-4.66A10,10,0,0,1,447,42.83a9.2,9.2,0,0,1,.94-4.15,9.92,9.92,0,0,1,2.6-3.28,12.27,12.27,0,0,1,4-2.16,16.85,16.85,0,0,1,5.29-.78,14.66,14.66,0,0,1,5.76,1,13,13,0,0,1,4.14,2.68,10.77,10.77,0,0,1,2.5,3.76,11.22,11.22,0,0,1,.84,4.19h-5.84a5,5,0,0,0-.37-1.64,6,6,0,0,0-1.22-2,7.46,7.46,0,0,0-2.29-1.67,9.38,9.38,0,0,0-8.37.63,4,4,0,0,0-1.77,3.36,4.14,4.14,0,0,0,1.12,3,9.79,9.79,0,0,0,3.31,2.11l7.3,3.23a17.57,17.57,0,0,1,6.74,4.64,9.79,9.79,0,0,1,2.17,6.41A9.09,9.09,0,0,1,470,69.9a13.16,13.16,0,0,1-4.14,1.93A18.76,18.76,0,0,1,460.85,72.48Z"/><path class="cls-2" d="M2.38,57.5a49.51,49.51,0,1,1,14.24,30c-.68-.69-1.34-1.39-2-2.1L27.5,72.55c.61.73,1.25,1.45,1.94,2.13a31.4,31.4,0,1,0,0-44.4Z"/></svg>